HIERARCHY
ROOT Hips
{
	OFFSET 0.000000 0.000000 0.000000
	CHANNELS 6 Xposition Yposition Zposition Zrotation Yrotation Xrotation 
	JOINT LHipJoint
	{
		OFFSET 0.000000 0.000000 0.000000
		CHANNELS 3 Zrotation Yrotation Xrotation
		JOINT LeftUpLeg
		{
			OFFSET 8.178360 -10.767780 5.035740
			CHANNELS 3 Zrotation Yrotation Xrotation
			JOINT LeftLeg
			{
				OFFSET 14.688660 -40.356780 0.000000
				CHANNELS 3 Zrotation Yrotation Xrotation
				JOINT LeftFoot
				{
					OFFSET 15.373200 -42.237540 0.000000
					CHANNELS 3 Zrotation Yrotation Xrotation
					JOINT LeftToeBase
					{
						OFFSET 0.945840 -2.598660 13.935300
						CHANNELS 3 Zrotation Yrotation Xrotation
						End Site
						{
							OFFSET 0.000000 0.000000 0.000000
						}
					}
				}
			}
		}
	}
	JOINT RHipJoint
	{
		OFFSET 0.000000 0.000000 0.000000
		CHANNELS 3 Zrotation Yrotation Xrotation
		JOINT RightUpLeg
		{
			OFFSET -7.833120 -10.767780 5.035740
			CHANNELS 3 Zrotation Yrotation Xrotation
			JOINT RightLeg
			{
				OFFSET -15.255180 -41.913300 0.000000
				CHANNELS 3 Zrotation Yrotation Xrotation
				JOINT RightFoot
				{
					OFFSET -15.409560 -42.337380 0.000000
					CHANNELS 3 Zrotation Yrotation Xrotation
					JOINT RightToeBase
					{
						OFFSET -0.988380 -2.715540 14.178900
						CHANNELS 3 Zrotation Yrotation Xrotation
						End Site
						{
							OFFSET 0.000000 0.000000 0.000000
						}
					}
				}
			}
		}
	}
	JOINT LowerBack
	{
		OFFSET 0.000000 0.000000 0.000000
		CHANNELS 3 Zrotation Yrotation Xrotation
		JOINT Spine
		{
			OFFSET 0.169620 12.213540 -1.160280
			CHANNELS 3 Zrotation Yrotation Xrotation
			JOINT Spine1
			{
				OFFSET 0.340320 12.293100 -0.256500
				CHANNELS 3 Zrotation Yrotation Xrotation
				JOINT Neck
				{
					OFFSET 0.000000 0.000000 0.000000
					CHANNELS 3 Zrotation Yrotation Xrotation
					JOINT Neck1
					{
						OFFSET -0.325020 10.477440 1.032120
						CHANNELS 3 Zrotation Yrotation Xrotation
						JOINT Head
						{
							OFFSET 0.624420 10.568160 -0.743820
							CHANNELS 3 Zrotation Yrotation Xrotation
							End Site
							{
								OFFSET 0.000000 0.000000 0.000000
							}
						}
					}
				}
				JOINT LeftShoulder
				{
					OFFSET 0.000000 0.000000 0.000000
					CHANNELS 3 Zrotation Yrotation Xrotation
					JOINT LeftArm
					{
						OFFSET 20.174460 7.205340 -1.867260
						CHANNELS 3 Zrotation Yrotation Xrotation
						JOINT LeftForeArm
						{
							OFFSET 29.898000 -0.000000 -0.000000
							CHANNELS 3 Zrotation Yrotation Xrotation
							JOINT LeftHand
							{
								OFFSET 20.901360 -0.000000 -0.000000
								CHANNELS 3 Zrotation Yrotation Xrotation
								JOINT LeftFingerBase
								{
									OFFSET 0.000000 0.000000 0.000000
									CHANNELS 3 Zrotation Yrotation Xrotation
									JOINT LeftHandIndex1
									{
										OFFSET 4.291560 -0.000000 -0.000000
										CHANNELS 3 Zrotation Yrotation Xrotation
										End Site
										{
											OFFSET 0.000000 0.000000 0.000000
										}
									}
								}
								JOINT LThumb
								{
									OFFSET 0.000000 0.000000 0.000000
									CHANNELS 3 Zrotation Yrotation Xrotation
									End Site
									{
										OFFSET 0.000000 0.000000 0.000000
									}
								}
							}
						}
					}
				}
				JOINT RightShoulder
				{
					OFFSET 0.000000 0.000000 0.000000
					CHANNELS 3 Zrotation Yrotation Xrotation
					JOINT RightArm
					{
						OFFSET -18.819600 8.244300 -2.427900
						CHANNELS 3 Zrotation Yrotation Xrotation
						JOINT RightForeArm
						{
							OFFSET -31.451400 -0.000000 -0.000000
							CHANNELS 3 Zrotation Yrotation Xrotation
							JOINT RightHand
							{
								OFFSET -20.665020 -0.000000 -0.000000
								CHANNELS 3 Zrotation Yrotation Xrotation
								JOINT RightFingerBase
								{
									OFFSET 0.000000 0.000000 0.000000
									CHANNELS 3 Zrotation Yrotation Xrotation
									JOINT RightHandIndex1
									{
										OFFSET -3.735180 -0.000000 -0.000000
										CHANNELS 3 Zrotation Yrotation Xrotation
										End Site
										{
											OFFSET 0.000000 0.000000 0.000000
										}
									}
								}
								JOINT RThumb
								{
									OFFSET 0.000000 0.000000 0.000000
									CHANNELS 3 Zrotation Yrotation Xrotation
									End Site
									{
										OFFSET 0.000000 0.000000 0.000000
									}
								}
							}
						}
					}
				}
			}
		}
	}
}
MOTION
Frames:	7
Frame Time:	0.0333333
-54.228366 107.850042 92.098974 -177.745046 20.664694 -177.780041 -1.593844 0.789245 1.185541 -6.541519 -2.617631 -22.827663 7.909639 16.440364 54.549670 0.818257 -11.126062 8.040515 1.191500 -6.926500 -19.497900 1.039202 -1.297232 1.827413 21.224153 4.436957 -0.290297 -1.121708 -7.386172 22.935692 -2.194921 11.332672 -1.501998 -0.019000 -0.889100 2.443800 1.686048 1.952311 10.417631 1.256415 2.957211 0.793578 -1.868713 1.509843 -5.075657 -9.555984 -2.586559 -12.507766 3.668071 0.951999 28.335008 4.297000 0.138400 16.914300 -6.339080 -1.604619 -1.469671 -81.576670 -1.390349 20.229504 16.276976 -22.975093 -4.016985 -1.542838 -2.139051 2.926145 22.309923 18.831137 8.966300 -7.125000 0.000000 0.000000 -5.039000 52.669800 -0.953000 5.226730 1.412252 -1.182099 80.532037 -1.295915 13.991533 -17.974170 26.446220 -4.561623 0.504471 -0.275436 6.855876 -19.452565 10.949930 -4.019300 7.125000 0.000000 0.000000 5.004800 -18.172500 3.206500 
-55.187256 107.936886 91.231146 -177.505862 22.759359 -177.521966 -1.746707 0.788272 1.121149 -5.126742 -5.845194 -21.857664 6.635044 15.604489 50.153219 0.714311 -7.025778 5.409865 0.222600 -3.037000 -8.381800 1.067171 -1.310991 1.867911 20.271180 5.170663 0.163893 -0.986616 -7.073285 22.040870 -2.295534 13.044829 0.314888 -0.096500 -2.003800 5.516100 2.138561 1.940551 10.504451 1.332809 3.012586 0.827245 -1.986400 1.533440 -5.043467 -9.675380 -2.585241 -12.699077 3.596060 0.878414 28.117048 4.251100 0.045200 16.851400 -6.318904 -1.604915 -1.481922 -82.179617 -1.550541 21.169529 16.548836 -23.291464 -4.155279 -1.511805 -2.143310 3.834325 21.825888 19.101018 8.854500 -7.125000 0.000000 0.000000 -5.690900 52.884100 -1.106800 5.210288 1.428608 -1.173611 80.214288 -1.131277 12.615241 -18.402853 27.001714 -4.767654 0.516281 -0.264761 5.457359 -19.593802 11.232784 -4.152300 7.125000 0.000000 0.000000 4.907800 -17.862500 3.177600 
-56.207658 108.240234 90.192054 -177.377911 25.221898 -177.128676 -2.020180 0.829318 1.155812 -3.629484 -9.343093 -20.037193 4.768623 14.075075 43.514510 0.702407 -5.150874 3.185791 0.528200 -4.657500 -12.934300 1.126418 -1.330115 1.892661 19.079115 6.001062 0.370943 -0.916279 -6.915759 21.523526 -2.453462 14.766227 0.706267 -0.001900 -0.278300 0.764700 2.417849 2.061143 10.519741 1.349393 3.214039 0.829820 -2.140347 1.625836 -5.065186 -9.713544 -2.579243 -12.683074 3.535990 0.696333 27.569913 4.157000 -0.074800 16.546700 -6.312700 -1.603594 -1.488431 -82.711718 -1.704822 21.602707 16.689772 -23.432251 -4.223009 -1.547991 -2.054831 3.771922 22.458813 18.030235 8.673100 -7.125000 0.000000 0.000000 -4.665300 51.787200 -0.781100 5.198949 1.448813 -1.163314 79.989197 -0.961139 11.665464 -18.702658 27.364135 -4.909175 0.533752 -0.196927 3.968016 -19.596414 9.929672 -3.667700 7.125000 0.000000 0.000000 4.875900 -19.294600 3.001700 
-57.312486 108.298128 88.953942 -177.111370 27.883967 -176.762149 -2.360012 0.922408 1.284916 -1.549941 -13.793130 -17.383406 2.669948 11.781623 35.269530 1.353257 -9.383669 4.621963 0.155300 -2.539000 -6.997900 1.176979 -1.347643 1.881467 18.003399 7.164374 0.465287 -0.915067 -6.937422 21.522728 -2.560375 16.566592 1.401947 -0.000200 -0.099000 0.272100 2.827442 2.187261 10.490410 1.380355 3.447316 0.883927 -2.325524 1.731657 -4.966514 -9.787598 -2.606007 -12.761049 3.622197 0.496408 27.162604 4.151700 -0.187700 16.354600 -6.288997 -1.580603 -1.500995 -83.154493 -1.609069 22.043698 17.009681 -23.841125 -4.389223 -1.514542 -2.120492 2.995114 22.476263 18.388457 8.840900 -7.125000 0.000000 0.000000 -4.767900 52.216400 -0.848600 5.175807 1.456629 -1.152818 79.568047 -0.899723 12.115018 -19.104033 27.866847 -5.111344 0.551259 -0.159702 3.321891 -19.954816 9.228355 -3.471700 7.125000 0.000000 0.000000 4.600500 -20.045200 2.753700 
-58.458324 107.892864 87.594012 -176.963619 30.898340 -176.365301 -2.776963 1.116931 1.508521 0.467248 -18.667482 -14.100112 0.768705 8.811242 25.992026 2.154576 -17.005654 6.423924 0.433600 -4.225700 -11.712500 1.210231 -1.377833 1.834740 16.696545 8.700743 -0.044812 -1.075271 -7.362690 22.668445 -2.634037 18.525931 2.074678 -0.029300 -1.105500 3.039100 2.861151 2.373945 10.247130 1.385468 3.700730 0.939350 -2.322334 1.845408 -4.754444 -9.764559 -2.607456 -13.104230 3.849066 0.422860 27.319364 4.247700 -0.211600 16.544200 -6.266693 -1.562280 -1.515324 -83.301343 -1.329508 22.442477 17.259224 -24.183386 -4.534012 -1.468175 -2.049535 1.839303 22.559842 16.960067 8.252700 -7.125000 0.000000 0.000000 -4.276900 50.615300 -0.592800 5.173045 1.440142 -1.145519 79.132829 -0.457184 12.942089 -19.103358 27.872541 -5.115455 0.544823 -0.152455 3.811279 -19.811540 8.900300 -3.320600 7.125000 0.000000 0.000000 4.703600 -20.414000 2.776800 
-59.687388 107.663094 85.904202 -176.849875 34.178740 -176.032610 -3.109048 1.410781 1.705592 1.982967 -23.826268 -10.798373 -0.478212 6.103544 18.425082 2.200209 -20.289059 12.955730 0.012600 0.725500 1.993700 1.205650 -1.468600 1.820423 15.216990 10.055003 -0.300988 -1.183613 -7.635548 23.269194 -2.770396 20.797214 1.407366 -0.000100 0.053300 -0.146400 2.879664 2.595608 9.858523 1.469149 3.987917 0.890483 -2.182412 1.964226 -4.713904 -9.866962 -2.560054 -12.848530 3.931860 0.471673 27.440613 4.303200 -0.207100 16.532000 -6.257661 -1.538223 -1.537265 -83.677401 -0.604623 22.444891 17.333809 -24.308137 -4.576488 -1.497571 -2.096017 2.380160 22.816261 17.683892 8.678900 -7.125000 0.000000 0.000000 -4.214100 51.493700 -0.675000 5.188349 1.391947 -1.140632 78.447232 -0.061843 13.358662 -18.727971 27.420399 -4.931094 0.523262 -0.194992 4.552079 -19.382916 9.746381 -3.556600 7.125000 0.000000 0.000000 5.031600 -19.510100 3.074100 
-61.063602 107.161332 84.177000 -177.209602 37.737355 -175.847354 -3.226971 1.412931 1.865579 1.409848 -21.934472 -10.767305 -0.796261 5.190447 15.767168 2.225599 -22.070007 12.333143 0.065900 -1.656800 -4.558200 1.153974 -1.479008 1.778553 13.231701 11.770052 -0.552775 -1.142085 -7.659136 23.272187 -2.694847 20.370118 2.841604 -0.063900 -1.631500 4.488200 2.524515 2.788451 9.453358 1.403439 4.171090 0.881342 -2.152808 2.061204 -4.553673 -9.717160 -2.451592 -12.962137 3.953655 0.523700 27.549261 4.283700 -0.186400 16.609200 -6.256147 -1.516448 -1.548445 -83.828839 -0.216773 21.947866 17.291782 -24.272130 -4.553394 -1.535743 -2.050265 2.439452 23.290810 17.164168 8.645300 -7.125000 0.000000 0.000000 -3.557800 50.983300 -0.525000 5.179570 1.367230 -1.142514 78.172072 0.281646 14.079629 -19.007716 27.782379 -5.078487 0.514293 -0.197205 4.745978 -19.243958 9.900090 -3.582900 7.125000 0.000000 0.000000 5.138200 -19.357100 3.157300 
